<svg xmlns="http://www.w3.org/2000/svg" xmlns:xlink="http://www.w3.org/1999/xlink" width="500" zoomAndPan="magnify" viewBox="0 0 375 374.999991" height="500" preserveAspectRatio="xMidYMid meet" version="1.0"><defs><clipPath id="7b27390c33"><path d="M 132.722656 129.945312 L 225.722656 129.945312 L 225.722656 234.171875 L 132.722656 234.171875 Z M 132.722656 129.945312 " clip-rule="nonzero"/></clipPath></defs><g clip-path="url(#7b27390c33)"><path fill="#737373" d="M 226.015625 214.082031 C 221.144531 220.289062 214.894531 225.371094 207.75 228.828125 C 200.851562 232.203125 193.105469 234.078125 184.9375 234.078125 C 170.523438 234.078125 157.484375 228.246094 148.023438 218.832031 C 138.566406 209.394531 132.734375 196.375 132.734375 182 C 132.734375 167.625 138.566406 154.605469 148.023438 145.171875 C 157.460938 135.753906 170.523438 129.921875 184.9375 129.921875 C 193.105469 129.921875 200.851562 131.796875 207.769531 135.152344 C 214.914062 138.609375 221.144531 143.691406 226.039062 149.898438 L 216.933594 157.003906 C 213.164062 152.210938 208.3125 148.273438 202.707031 145.546875 C 197.355469 142.941406 191.332031 141.484375 184.957031 141.484375 C 173.75 141.484375 163.605469 146.023438 156.253906 153.335938 C 148.878906 160.691406 144.339844 170.8125 144.339844 182 C 144.339844 193.1875 148.878906 203.3125 156.234375 210.644531 C 163.585938 217.976562 173.730469 222.496094 184.9375 222.496094 C 191.3125 222.496094 197.332031 221.039062 202.6875 218.433594 C 208.289062 215.707031 213.144531 211.769531 216.914062 206.976562 Z M 226.015625 214.082031 " fill-opacity="1" fill-rule="nonzero"/></g><path fill="#737373" d="M 154.109375 182.0625 C 154.109375 173.417969 157.628906 165.585938 163.292969 159.917969 C 168.980469 154.253906 176.8125 150.753906 185.480469 150.753906 C 190.332031 150.753906 194.957031 151.878906 199.101562 153.859375 C 203.375 155.917969 207.125 158.917969 210.039062 162.566406 L 200.976562 169.75 C 199.125 167.4375 196.769531 165.542969 194.082031 164.253906 C 191.519531 163.023438 188.605469 162.316406 185.5 162.316406 C 180.042969 162.316406 175.085938 164.523438 171.523438 168.085938 C 167.941406 171.648438 165.730469 176.585938 165.730469 182.042969 L 154.109375 182.042969 Z M 154.109375 182.0625 " fill-opacity="1" fill-rule="nonzero"/><path fill="#000000" d="M 198.644531 170.148438 C 200.101562 171.730469 201.25 173.605469 202.0625 175.667969 C 202.832031 177.6875 203.269531 179.835938 203.269531 182.042969 C 203.269531 186.9375 201.289062 191.375 198.0625 194.582031 C 194.855469 197.789062 190.394531 199.769531 185.5 199.769531 L 185.5 188.1875 C 187.207031 188.1875 188.75 187.5 189.855469 186.394531 C 190.980469 185.292969 191.667969 183.75 191.667969 182.042969 C 191.667969 181.230469 191.519531 180.480469 191.269531 179.835938 C 191 179.125 190.582031 178.480469 190.082031 177.917969 Z M 198.644531 170.148438 " fill-opacity="1" fill-rule="nonzero"/><text x="50%" y="320" text-anchor="middle" font-family="Arial, sans-serif" font-size="64" fill="none" stroke="#737373" stroke-width="2" stroke-linecap="round" stroke-dasharray="300" stroke-dashoffset="300"><tspan>CEYLIZ</tspan><animate attributeName="stroke-dashoffset" values="300;0;300" dur="2s" repeatCount="indefinite"/></text></svg>