<svg xmlns="http://www.w3.org/2000/svg" xmlns:xlink="http://www.w3.org/1999/xlink" width="500" zoomAndPan="magnify" viewBox="0 0 375 374.999991" height="500" preserveAspectRatio="xMidYMid meet" version="1.0"><defs><g/><clipPath id="5830d308f7"><path d="M 0.199219 1 L 5 1 L 5 7 L 0.199219 7 Z M 0.199219 1 " clip-rule="nonzero"/></clipPath><clipPath id="c478aaaf5c"><rect x="0" width="185" y="0" height="9"/></clipPath><clipPath id="36c196024b"><path d="M 42.75 135.4375 L 135.75 135.4375 L 135.75 239.667969 L 42.75 239.667969 Z M 42.75 135.4375 " clip-rule="nonzero"/></clipPath></defs><g fill="#000000" fill-opacity="1"><g transform="translate(145.256654, 196.828185)"><g><path d="M 17.578125 0.609375 C 14.503906 0.609375 11.78125 -0.0625 9.40625 -1.40625 C 7.039062 -2.75 5.191406 -4.609375 3.859375 -6.984375 C 2.523438 -9.359375 1.859375 -12.09375 1.859375 -15.1875 C 1.859375 -18.28125 2.523438 -21.015625 3.859375 -23.390625 C 5.191406 -25.765625 7.035156 -27.625 9.390625 -28.96875 C 11.753906 -30.3125 14.46875 -30.984375 17.53125 -30.984375 C 20.101562 -30.984375 22.457031 -30.488281 24.59375 -29.5 C 26.738281 -28.519531 28.539062 -27.132812 30 -25.34375 C 31.46875 -23.550781 32.488281 -21.4375 33.0625 -19 L 25.953125 -19 C 25.367188 -20.675781 24.335938 -22 22.859375 -22.96875 C 21.390625 -23.9375 19.6875 -24.421875 17.75 -24.421875 C 16.039062 -24.421875 14.515625 -24.03125 13.171875 -23.25 C 11.828125 -22.46875 10.773438 -21.382812 10.015625 -20 C 9.265625 -18.613281 8.890625 -17.007812 8.890625 -15.1875 C 8.890625 -13.363281 9.265625 -11.753906 10.015625 -10.359375 C 10.773438 -8.972656 11.816406 -7.890625 13.140625 -7.109375 C 14.472656 -6.328125 15.992188 -5.9375 17.703125 -5.9375 C 19.703125 -5.9375 21.453125 -6.453125 22.953125 -7.484375 C 24.453125 -8.515625 25.523438 -9.894531 26.171875 -11.625 L 33.28125 -11.625 C 32.789062 -9.164062 31.804688 -7.019531 30.328125 -5.1875 C 28.847656 -3.351562 27.015625 -1.925781 24.828125 -0.90625 C 22.648438 0.101562 20.234375 0.609375 17.578125 0.609375 Z M 17.578125 0.609375 "/></g></g></g><g fill="#000000" fill-opacity="1"><g transform="translate(181.568206, 196.828185)"><g><path d="M 3.640625 0 L 3.640625 -30.375 L 23.609375 -30.375 L 23.609375 -24.5625 L 10.5 -24.5625 L 10.5 -18.265625 L 22.4375 -18.265625 L 22.4375 -12.5 L 10.5 -12.5 L 10.5 -5.859375 L 24.078125 -5.859375 L 24.078125 0 Z M 3.640625 0 "/></g></g></g><g fill="#000000" fill-opacity="1"><g transform="translate(209.159817, 196.828185)"><g><path d="M 11.578125 0 L 11.578125 -10.625 L 0.390625 -30.375 L 8.25 -30.375 L 12.015625 -23.34375 L 15.0625 -17.828125 L 18.046875 -23.34375 L 21.78125 -30.375 L 29.640625 -30.375 L 18.484375 -10.71875 L 18.484375 0 Z M 11.578125 0 "/></g></g></g><g fill="#000000" fill-opacity="1"><g transform="translate(240.482352, 196.828185)"><g><path d="M 3.640625 0 L 3.640625 -30.375 L 10.546875 -30.375 L 10.546875 -6.46875 L 23.828125 -6.46875 L 23.828125 0 Z M 3.640625 0 "/></g></g></g><g fill="#000000" fill-opacity="1"><g transform="translate(266.772485, 196.828185)"><g><path d="M 3.640625 0 L 3.640625 -30.375 L 10.546875 -30.375 L 10.546875 0 Z M 3.640625 0 "/></g></g></g><g fill="#000000" fill-opacity="1"><g transform="translate(282.260311, 196.828185)"><g><path d="M 1.828125 0 L 1.828125 -4.984375 L 15.703125 -24.125 L 2.296875 -24.125 L 2.296875 -30.375 L 24.640625 -30.375 L 24.640625 -25.390625 L 10.796875 -6.25 L 25 -6.25 L 25 0 Z M 1.828125 0 "/></g></g></g><g transform="matrix(1, 0, 0, 1, 145, 203)"><g clip-path="url(#c478aaaf5c)"><g clip-path="url(#5830d308f7)"><g fill="#545454" fill-opacity="1"><g transform="translate(0.256655, 6.149796)"><g><path d="M 2.34375 -1.609375 L 2.34375 0 L 1.859375 0 L 1.859375 -1.609375 L 0 -4.65625 L 0.53125 -4.65625 L 2.125 -2.03125 L 3.71875 -4.65625 L 4.203125 -4.65625 Z M 2.34375 -1.609375 "/></g></g></g></g><g fill="#545454" fill-opacity="1"><g transform="translate(9.123768, 6.149796)"><g><path d="M 2.796875 0.046875 C 2.328125 0.046875 1.90625 -0.0546875 1.53125 -0.265625 C 1.15625 -0.472656 0.863281 -0.753906 0.65625 -1.109375 C 0.445312 -1.472656 0.34375 -1.878906 0.34375 -2.328125 C 0.34375 -2.773438 0.445312 -3.175781 0.65625 -3.53125 C 0.863281 -3.894531 1.15625 -4.175781 1.53125 -4.375 C 1.90625 -4.582031 2.328125 -4.6875 2.796875 -4.6875 C 3.253906 -4.6875 3.664062 -4.582031 4.03125 -4.375 C 4.40625 -4.175781 4.695312 -3.894531 4.90625 -3.53125 C 5.113281 -3.175781 5.21875 -2.773438 5.21875 -2.328125 C 5.21875 -1.878906 5.113281 -1.472656 4.90625 -1.109375 C 4.695312 -0.753906 4.40625 -0.472656 4.03125 -0.265625 C 3.664062 -0.0546875 3.253906 0.046875 2.796875 0.046875 Z M 2.796875 -0.40625 C 3.160156 -0.40625 3.488281 -0.484375 3.78125 -0.640625 C 4.082031 -0.804688 4.316406 -1.035156 4.484375 -1.328125 C 4.648438 -1.628906 4.734375 -1.960938 4.734375 -2.328125 C 4.734375 -2.691406 4.648438 -3.019531 4.484375 -3.3125 C 4.316406 -3.601562 4.082031 -3.832031 3.78125 -4 C 3.488281 -4.164062 3.160156 -4.25 2.796875 -4.25 C 2.421875 -4.25 2.082031 -4.164062 1.78125 -4 C 1.488281 -3.832031 1.253906 -3.601562 1.078125 -3.3125 C 0.910156 -3.019531 0.828125 -2.691406 0.828125 -2.328125 C 0.828125 -1.960938 0.910156 -1.628906 1.078125 -1.328125 C 1.253906 -1.035156 1.488281 -0.804688 1.78125 -0.640625 C 2.082031 -0.484375 2.421875 -0.40625 2.796875 -0.40625 Z M 2.796875 -0.40625 "/></g></g></g><g fill="#545454" fill-opacity="1"><g transform="translate(19.345858, 6.149796)"><g><path d="M 2.625 0.046875 C 2.03125 0.046875 1.5625 -0.125 1.21875 -0.46875 C 0.882812 -0.820312 0.71875 -1.328125 0.71875 -1.984375 L 0.71875 -4.65625 L 1.203125 -4.65625 L 1.203125 -2 C 1.203125 -1.46875 1.320312 -1.066406 1.5625 -0.796875 C 1.8125 -0.535156 2.164062 -0.40625 2.625 -0.40625 C 3.09375 -0.40625 3.445312 -0.535156 3.6875 -0.796875 C 3.9375 -1.066406 4.0625 -1.46875 4.0625 -2 L 4.0625 -4.65625 L 4.53125 -4.65625 L 4.53125 -1.984375 C 4.53125 -1.328125 4.363281 -0.820312 4.03125 -0.46875 C 3.695312 -0.125 3.226562 0.046875 2.625 0.046875 Z M 2.625 0.046875 "/></g></g></g><g fill="#545454" fill-opacity="1"><g transform="translate(29.255777, 6.149796)"><g><path d="M 3.9375 0 L 2.875 -1.5 C 2.75 -1.476562 2.625 -1.46875 2.5 -1.46875 L 1.25 -1.46875 L 1.25 0 L 0.75 0 L 0.75 -4.65625 L 2.5 -4.65625 C 3.09375 -4.65625 3.554688 -4.507812 3.890625 -4.21875 C 4.222656 -3.9375 4.390625 -3.550781 4.390625 -3.0625 C 4.390625 -2.695312 4.296875 -2.390625 4.109375 -2.140625 C 3.929688 -1.890625 3.671875 -1.707031 3.328125 -1.59375 L 4.46875 0 Z M 2.484375 -1.890625 C 2.941406 -1.890625 3.289062 -1.988281 3.53125 -2.1875 C 3.78125 -2.394531 3.90625 -2.6875 3.90625 -3.0625 C 3.90625 -3.4375 3.78125 -3.722656 3.53125 -3.921875 C 3.289062 -4.117188 2.941406 -4.21875 2.484375 -4.21875 L 1.25 -4.21875 L 1.25 -1.890625 Z M 2.484375 -1.890625 "/></g></g></g><g fill="#545454" fill-opacity="1"><g transform="translate(38.707387, 6.149796)"><g/></g></g><g fill="#545454" fill-opacity="1"><g transform="translate(45.097014, 6.149796)"><g><path d="M 3.671875 -1.234375 L 1.078125 -1.234375 L 0.53125 0 L 0.015625 0 L 2.140625 -4.65625 L 2.625 -4.65625 L 4.75 0 L 4.234375 0 Z M 3.5 -1.640625 L 2.375 -4.140625 L 1.265625 -1.640625 Z M 3.5 -1.640625 "/></g></g></g><g fill="#545454" fill-opacity="1"><g transform="translate(54.508776, 6.149796)"><g><path d="M 0.75 -4.65625 L 1.25 -4.65625 L 1.25 0 L 0.75 0 Z M 0.75 -4.65625 "/></g></g></g><g fill="#545454" fill-opacity="1"><g transform="translate(61.164081, 6.149796)"><g/></g></g><g fill="#545454" fill-opacity="1"><g transform="translate(67.553708, 6.149796)"><g><path d="M 3.6875 -2.390625 C 3.988281 -2.328125 4.222656 -2.195312 4.390625 -2 C 4.554688 -1.800781 4.640625 -1.546875 4.640625 -1.234375 C 4.640625 -0.835938 4.492188 -0.53125 4.203125 -0.3125 C 3.910156 -0.101562 3.472656 0 2.890625 0 L 0.75 0 L 0.75 -4.65625 L 2.765625 -4.65625 C 3.285156 -4.65625 3.6875 -4.550781 3.96875 -4.34375 C 4.25 -4.132812 4.390625 -3.835938 4.390625 -3.453125 C 4.390625 -3.191406 4.328125 -2.972656 4.203125 -2.796875 C 4.078125 -2.617188 3.90625 -2.484375 3.6875 -2.390625 Z M 1.25 -4.25 L 1.25 -2.5625 L 2.734375 -2.5625 C 3.109375 -2.5625 3.394531 -2.628906 3.59375 -2.765625 C 3.800781 -2.910156 3.90625 -3.125 3.90625 -3.40625 C 3.90625 -3.675781 3.800781 -3.882812 3.59375 -4.03125 C 3.394531 -4.175781 3.109375 -4.25 2.734375 -4.25 Z M 2.890625 -0.40625 C 3.304688 -0.40625 3.617188 -0.472656 3.828125 -0.609375 C 4.046875 -0.753906 4.15625 -0.976562 4.15625 -1.28125 C 4.15625 -1.863281 3.734375 -2.15625 2.890625 -2.15625 L 1.25 -2.15625 L 1.25 -0.40625 Z M 2.890625 -0.40625 "/></g></g></g><g fill="#545454" fill-opacity="1"><g transform="translate(77.211226, 6.149796)"><g><path d="M 2.625 0.046875 C 2.03125 0.046875 1.5625 -0.125 1.21875 -0.46875 C 0.882812 -0.820312 0.71875 -1.328125 0.71875 -1.984375 L 0.71875 -4.65625 L 1.203125 -4.65625 L 1.203125 -2 C 1.203125 -1.46875 1.320312 -1.066406 1.5625 -0.796875 C 1.8125 -0.535156 2.164062 -0.40625 2.625 -0.40625 C 3.09375 -0.40625 3.445312 -0.535156 3.6875 -0.796875 C 3.9375 -1.066406 4.0625 -1.46875 4.0625 -2 L 4.0625 -4.65625 L 4.53125 -4.65625 L 4.53125 -1.984375 C 4.53125 -1.328125 4.363281 -0.820312 4.03125 -0.46875 C 3.695312 -0.125 3.226562 0.046875 2.625 0.046875 Z M 2.625 0.046875 "/></g></g></g><g fill="#545454" fill-opacity="1"><g transform="translate(87.121144, 6.149796)"><g><path d="M 2.03125 0.046875 C 1.6875 0.046875 1.359375 -0.0078125 1.046875 -0.125 C 0.734375 -0.238281 0.488281 -0.382812 0.3125 -0.5625 L 0.5 -0.9375 C 0.664062 -0.769531 0.890625 -0.632812 1.171875 -0.53125 C 1.453125 -0.425781 1.738281 -0.375 2.03125 -0.375 C 2.445312 -0.375 2.757812 -0.453125 2.96875 -0.609375 C 3.175781 -0.765625 3.28125 -0.960938 3.28125 -1.203125 C 3.28125 -1.390625 3.222656 -1.535156 3.109375 -1.640625 C 3.003906 -1.753906 2.867188 -1.84375 2.703125 -1.90625 C 2.535156 -1.96875 2.304688 -2.03125 2.015625 -2.09375 C 1.671875 -2.1875 1.394531 -2.273438 1.1875 -2.359375 C 0.976562 -2.441406 0.796875 -2.566406 0.640625 -2.734375 C 0.492188 -2.898438 0.421875 -3.125 0.421875 -3.40625 C 0.421875 -3.644531 0.484375 -3.859375 0.609375 -4.046875 C 0.734375 -4.242188 0.921875 -4.398438 1.171875 -4.515625 C 1.429688 -4.628906 1.753906 -4.6875 2.140625 -4.6875 C 2.398438 -4.6875 2.65625 -4.648438 2.90625 -4.578125 C 3.164062 -4.503906 3.390625 -4.40625 3.578125 -4.28125 L 3.40625 -3.890625 C 3.21875 -4.015625 3.007812 -4.109375 2.78125 -4.171875 C 2.5625 -4.234375 2.347656 -4.265625 2.140625 -4.265625 C 1.734375 -4.265625 1.425781 -4.1875 1.21875 -4.03125 C 1.007812 -3.875 0.90625 -3.671875 0.90625 -3.421875 C 0.90625 -3.234375 0.960938 -3.082031 1.078125 -2.96875 C 1.191406 -2.863281 1.332031 -2.78125 1.5 -2.71875 C 1.675781 -2.65625 1.90625 -2.59375 2.1875 -2.53125 C 2.53125 -2.4375 2.804688 -2.347656 3.015625 -2.265625 C 3.222656 -2.191406 3.398438 -2.070312 3.546875 -1.90625 C 3.691406 -1.738281 3.765625 -1.515625 3.765625 -1.234375 C 3.765625 -0.992188 3.703125 -0.773438 3.578125 -0.578125 C 3.453125 -0.390625 3.257812 -0.238281 3 -0.125 C 2.738281 -0.0078125 2.414062 0.046875 2.03125 0.046875 Z M 2.03125 0.046875 "/></g></g></g><g fill="#545454" fill-opacity="1"><g transform="translate(95.855414, 6.149796)"><g><path d="M 0.75 -4.65625 L 1.25 -4.65625 L 1.25 0 L 0.75 0 Z M 0.75 -4.65625 "/></g></g></g><g fill="#545454" fill-opacity="1"><g transform="translate(102.510719, 6.149796)"><g><path d="M 4.640625 -4.65625 L 4.640625 0 L 4.234375 0 L 1.25 -3.765625 L 1.25 0 L 0.75 0 L 0.75 -4.65625 L 1.15625 -4.65625 L 4.15625 -0.875 L 4.15625 -4.65625 Z M 4.640625 -4.65625 "/></g></g></g><g fill="#545454" fill-opacity="1"><g transform="translate(112.560119, 6.149796)"><g><path d="M 4.046875 -0.421875 L 4.046875 0 L 0.75 0 L 0.75 -4.65625 L 3.9375 -4.65625 L 3.9375 -4.21875 L 1.25 -4.21875 L 1.25 -2.5625 L 3.65625 -2.5625 L 3.65625 -2.15625 L 1.25 -2.15625 L 1.25 -0.421875 Z M 4.046875 -0.421875 "/></g></g></g><g fill="#545454" fill-opacity="1"><g transform="translate(121.653063, 6.149796)"><g><path d="M 2.03125 0.046875 C 1.6875 0.046875 1.359375 -0.0078125 1.046875 -0.125 C 0.734375 -0.238281 0.488281 -0.382812 0.3125 -0.5625 L 0.5 -0.9375 C 0.664062 -0.769531 0.890625 -0.632812 1.171875 -0.53125 C 1.453125 -0.425781 1.738281 -0.375 2.03125 -0.375 C 2.445312 -0.375 2.757812 -0.453125 2.96875 -0.609375 C 3.175781 -0.765625 3.28125 -0.960938 3.28125 -1.203125 C 3.28125 -1.390625 3.222656 -1.535156 3.109375 -1.640625 C 3.003906 -1.753906 2.867188 -1.84375 2.703125 -1.90625 C 2.535156 -1.96875 2.304688 -2.03125 2.015625 -2.09375 C 1.671875 -2.1875 1.394531 -2.273438 1.1875 -2.359375 C 0.976562 -2.441406 0.796875 -2.566406 0.640625 -2.734375 C 0.492188 -2.898438 0.421875 -3.125 0.421875 -3.40625 C 0.421875 -3.644531 0.484375 -3.859375 0.609375 -4.046875 C 0.734375 -4.242188 0.921875 -4.398438 1.171875 -4.515625 C 1.429688 -4.628906 1.753906 -4.6875 2.140625 -4.6875 C 2.398438 -4.6875 2.65625 -4.648438 2.90625 -4.578125 C 3.164062 -4.503906 3.390625 -4.40625 3.578125 -4.28125 L 3.40625 -3.890625 C 3.21875 -4.015625 3.007812 -4.109375 2.78125 -4.171875 C 2.5625 -4.234375 2.347656 -4.265625 2.140625 -4.265625 C 1.734375 -4.265625 1.425781 -4.1875 1.21875 -4.03125 C 1.007812 -3.875 0.90625 -3.671875 0.90625 -3.421875 C 0.90625 -3.234375 0.960938 -3.082031 1.078125 -2.96875 C 1.191406 -2.863281 1.332031 -2.78125 1.5 -2.71875 C 1.675781 -2.65625 1.90625 -2.59375 2.1875 -2.53125 C 2.53125 -2.4375 2.804688 -2.347656 3.015625 -2.265625 C 3.222656 -2.191406 3.398438 -2.070312 3.546875 -1.90625 C 3.691406 -1.738281 3.765625 -1.515625 3.765625 -1.234375 C 3.765625 -0.992188 3.703125 -0.773438 3.578125 -0.578125 C 3.453125 -0.390625 3.257812 -0.238281 3 -0.125 C 2.738281 -0.0078125 2.414062 0.046875 2.03125 0.046875 Z M 2.03125 0.046875 "/></g></g></g><g fill="#545454" fill-opacity="1"><g transform="translate(130.387333, 6.149796)"><g><path d="M 2.03125 0.046875 C 1.6875 0.046875 1.359375 -0.0078125 1.046875 -0.125 C 0.734375 -0.238281 0.488281 -0.382812 0.3125 -0.5625 L 0.5 -0.9375 C 0.664062 -0.769531 0.890625 -0.632812 1.171875 -0.53125 C 1.453125 -0.425781 1.738281 -0.375 2.03125 -0.375 C 2.445312 -0.375 2.757812 -0.453125 2.96875 -0.609375 C 3.175781 -0.765625 3.28125 -0.960938 3.28125 -1.203125 C 3.28125 -1.390625 3.222656 -1.535156 3.109375 -1.640625 C 3.003906 -1.753906 2.867188 -1.84375 2.703125 -1.90625 C 2.535156 -1.96875 2.304688 -2.03125 2.015625 -2.09375 C 1.671875 -2.1875 1.394531 -2.273438 1.1875 -2.359375 C 0.976562 -2.441406 0.796875 -2.566406 0.640625 -2.734375 C 0.492188 -2.898438 0.421875 -3.125 0.421875 -3.40625 C 0.421875 -3.644531 0.484375 -3.859375 0.609375 -4.046875 C 0.734375 -4.242188 0.921875 -4.398438 1.171875 -4.515625 C 1.429688 -4.628906 1.753906 -4.6875 2.140625 -4.6875 C 2.398438 -4.6875 2.65625 -4.648438 2.90625 -4.578125 C 3.164062 -4.503906 3.390625 -4.40625 3.578125 -4.28125 L 3.40625 -3.890625 C 3.21875 -4.015625 3.007812 -4.109375 2.78125 -4.171875 C 2.5625 -4.234375 2.347656 -4.265625 2.140625 -4.265625 C 1.734375 -4.265625 1.425781 -4.1875 1.21875 -4.03125 C 1.007812 -3.875 0.90625 -3.671875 0.90625 -3.421875 C 0.90625 -3.234375 0.960938 -3.082031 1.078125 -2.96875 C 1.191406 -2.863281 1.332031 -2.78125 1.5 -2.71875 C 1.675781 -2.65625 1.90625 -2.59375 2.1875 -2.53125 C 2.53125 -2.4375 2.804688 -2.347656 3.015625 -2.265625 C 3.222656 -2.191406 3.398438 -2.070312 3.546875 -1.90625 C 3.691406 -1.738281 3.765625 -1.515625 3.765625 -1.234375 C 3.765625 -0.992188 3.703125 -0.773438 3.578125 -0.578125 C 3.453125 -0.390625 3.257812 -0.238281 3 -0.125 C 2.738281 -0.0078125 2.414062 0.046875 2.03125 0.046875 Z M 2.03125 0.046875 "/></g></g></g><g fill="#545454" fill-opacity="1"><g transform="translate(139.121602, 6.149796)"><g/></g></g><g fill="#545454" fill-opacity="1"><g transform="translate(145.511229, 6.149796)"><g><path d="M 4.046875 -0.421875 L 4.046875 0 L 0.75 0 L 0.75 -4.65625 L 3.9375 -4.65625 L 3.9375 -4.21875 L 1.25 -4.21875 L 1.25 -2.5625 L 3.65625 -2.5625 L 3.65625 -2.15625 L 1.25 -2.15625 L 1.25 -0.421875 Z M 4.046875 -0.421875 "/></g></g></g><g fill="#545454" fill-opacity="1"><g transform="translate(154.604165, 6.149796)"><g><path d="M 0.75 -4.65625 L 2.65625 -4.65625 C 3.144531 -4.65625 3.578125 -4.554688 3.953125 -4.359375 C 4.328125 -4.160156 4.617188 -3.882812 4.828125 -3.53125 C 5.035156 -3.175781 5.140625 -2.773438 5.140625 -2.328125 C 5.140625 -1.867188 5.035156 -1.460938 4.828125 -1.109375 C 4.617188 -0.765625 4.328125 -0.492188 3.953125 -0.296875 C 3.578125 -0.0976562 3.144531 0 2.65625 0 L 0.75 0 Z M 2.625 -0.421875 C 3.03125 -0.421875 3.382812 -0.5 3.6875 -0.65625 C 4 -0.820312 4.238281 -1.046875 4.40625 -1.328125 C 4.570312 -1.617188 4.65625 -1.953125 4.65625 -2.328125 C 4.65625 -2.691406 4.570312 -3.015625 4.40625 -3.296875 C 4.238281 -3.585938 4 -3.8125 3.6875 -3.96875 C 3.382812 -4.132812 3.03125 -4.21875 2.625 -4.21875 L 1.25 -4.21875 L 1.25 -0.421875 Z M 2.625 -0.421875 "/></g></g></g><g fill="#545454" fill-opacity="1"><g transform="translate(164.739914, 6.149796)"><g><path d="M 4.03125 -2.328125 L 4.5 -2.328125 L 4.5 -0.546875 C 4.28125 -0.359375 4.019531 -0.210938 3.71875 -0.109375 C 3.425781 -0.00390625 3.117188 0.046875 2.796875 0.046875 C 2.328125 0.046875 1.90625 -0.0546875 1.53125 -0.265625 C 1.164062 -0.472656 0.875 -0.753906 0.65625 -1.109375 C 0.445312 -1.472656 0.34375 -1.878906 0.34375 -2.328125 C 0.34375 -2.773438 0.445312 -3.175781 0.65625 -3.53125 C 0.875 -3.894531 1.164062 -4.175781 1.53125 -4.375 C 1.90625 -4.582031 2.328125 -4.6875 2.796875 -4.6875 C 3.148438 -4.6875 3.472656 -4.628906 3.765625 -4.515625 C 4.066406 -4.398438 4.320312 -4.234375 4.53125 -4.015625 L 4.21875 -3.703125 C 3.851562 -4.066406 3.390625 -4.25 2.828125 -4.25 C 2.453125 -4.25 2.109375 -4.164062 1.796875 -4 C 1.492188 -3.832031 1.253906 -3.601562 1.078125 -3.3125 C 0.910156 -3.019531 0.828125 -2.691406 0.828125 -2.328125 C 0.828125 -1.960938 0.910156 -1.632812 1.078125 -1.34375 C 1.253906 -1.050781 1.492188 -0.820312 1.796875 -0.65625 C 2.097656 -0.488281 2.4375 -0.40625 2.8125 -0.40625 C 3.289062 -0.40625 3.695312 -0.519531 4.03125 -0.75 Z M 4.03125 -2.328125 "/></g></g></g><g fill="#545454" fill-opacity="1"><g transform="translate(174.523628, 6.149796)"><g><path d="M 4.046875 -0.421875 L 4.046875 0 L 0.75 0 L 0.75 -4.65625 L 3.9375 -4.65625 L 3.9375 -4.21875 L 1.25 -4.21875 L 1.25 -2.5625 L 3.65625 -2.5625 L 3.65625 -2.15625 L 1.25 -2.15625 L 1.25 -0.421875 Z M 4.046875 -0.421875 "/></g></g></g></g></g><g clip-path="url(#36c196024b)"><path fill="#737373" d="M 136.042969 219.574219 C 131.171875 225.78125 124.921875 230.867188 117.777344 234.324219 C 110.878906 237.699219 103.132812 239.574219 94.964844 239.574219 C 80.550781 239.574219 67.511719 233.742188 58.050781 224.324219 C 48.59375 214.886719 42.761719 201.867188 42.761719 187.496094 C 42.761719 173.121094 48.59375 160.101562 58.050781 150.664062 C 67.488281 141.25 80.550781 135.417969 94.964844 135.417969 C 103.132812 135.417969 110.878906 137.292969 117.796875 140.644531 C 124.941406 144.105469 131.171875 149.1875 136.066406 155.394531 L 126.960938 162.496094 C 123.191406 157.707031 118.339844 153.769531 112.734375 151.039062 C 107.382812 148.4375 101.359375 146.976562 94.988281 146.976562 C 83.777344 146.976562 73.632812 151.519531 66.28125 158.832031 C 58.90625 166.183594 54.367188 176.308594 54.367188 187.496094 C 54.367188 198.679688 58.90625 208.804688 66.261719 216.136719 C 73.613281 223.46875 83.757812 227.992188 94.964844 227.992188 C 101.339844 227.992188 107.359375 226.53125 112.714844 223.929688 C 118.316406 221.199219 123.171875 217.261719 126.941406 212.472656 Z M 136.042969 219.574219 " fill-opacity="1" fill-rule="nonzero"/></g><path fill="#737373" d="M 64.136719 187.558594 C 64.136719 178.914062 67.65625 171.078125 73.320312 165.414062 C 79.007812 159.746094 86.839844 156.25 95.507812 156.25 C 100.359375 156.25 104.984375 157.371094 109.128906 159.351562 C 113.402344 161.414062 117.152344 164.414062 120.066406 168.058594 L 111.003906 175.246094 C 109.152344 172.933594 106.796875 171.039062 104.109375 169.746094 C 101.546875 168.519531 98.632812 167.808594 95.527344 167.808594 C 90.070312 167.808594 85.113281 170.019531 81.550781 173.578125 C 77.96875 177.140625 75.757812 182.078125 75.757812 187.535156 L 64.136719 187.535156 Z M 64.136719 187.558594 " fill-opacity="1" fill-rule="nonzero"/><path fill="#000000" d="M 108.671875 175.640625 C 110.128906 177.226562 111.277344 179.101562 112.089844 181.164062 C 112.859375 183.183594 113.296875 185.328125 113.296875 187.535156 C 113.296875 192.433594 111.316406 196.867188 108.089844 200.078125 C 104.882812 203.285156 100.421875 205.265625 95.527344 205.265625 L 95.527344 193.683594 C 97.234375 193.683594 98.777344 192.996094 99.882812 191.890625 C 101.007812 190.785156 101.695312 189.246094 101.695312 187.535156 C 101.695312 186.722656 101.546875 185.972656 101.296875 185.328125 C 101.027344 184.621094 100.609375 183.972656 100.109375 183.410156 Z M 108.671875 175.640625 " fill-opacity="1" fill-rule="nonzero"/></svg>