<svg xmlns="http://www.w3.org/2000/svg" xmlns:xlink="http://www.w3.org/1999/xlink" width="500" zoomAndPan="magnify" viewBox="0 0 375 374.999991" height="500" preserveAspectRatio="xMidYMid meet" version="1.0"><defs><clipPath id="3ced7ee8e8"><path d="M 23.882812 12.5625 L 337.382812 12.5625 L 337.382812 362.742188 L 23.882812 362.742188 Z M 23.882812 12.5625 " clip-rule="nonzero"/></clipPath></defs><g clip-path="url(#3ced7ee8e8)"><path fill="#737373" d="M 337.390625 295.304688 C 321.007812 316.164062 300.007812 333.246094 275.996094 344.867188 C 252.824219 356.207031 226.785156 362.507812 199.34375 362.507812 C 150.902344 362.507812 107.078125 342.90625 75.296875 311.265625 C 43.515625 279.554688 23.914062 235.800781 23.914062 187.5 C 23.914062 139.195312 43.515625 95.445312 75.296875 63.734375 C 107.007812 32.09375 150.902344 12.492188 199.34375 12.492188 C 226.785156 12.492188 252.824219 18.792969 276.066406 30.0625 C 300.078125 41.683594 321.007812 58.761719 337.457031 79.625 L 306.867188 103.496094 C 294.195312 87.394531 277.886719 74.164062 259.054688 64.992188 C 241.066406 56.242188 220.832031 51.34375 199.414062 51.34375 C 161.75 51.34375 127.660156 66.601562 102.949219 91.175781 C 78.167969 115.886719 62.90625 149.90625 62.90625 187.5 C 62.90625 225.089844 78.167969 259.113281 102.878906 283.753906 C 127.589844 308.394531 161.679688 323.585938 199.34375 323.585938 C 220.761719 323.585938 240.996094 318.683594 258.984375 309.933594 C 277.816406 300.765625 294.125 287.535156 306.796875 271.433594 Z M 337.390625 295.304688 " fill-opacity="1" fill-rule="nonzero"/></g><path fill="#737373" d="M 95.738281 187.707031 C 95.738281 158.65625 107.570312 132.335938 126.609375 113.296875 C 145.71875 94.253906 172.042969 82.496094 201.164062 82.496094 C 217.472656 82.496094 233.015625 86.273438 246.945312 92.925781 C 261.296875 99.855469 273.894531 109.933594 283.695312 122.1875 L 253.246094 146.335938 C 247.015625 138.566406 239.105469 132.195312 230.074219 127.855469 C 221.464844 123.726562 211.664062 121.347656 201.234375 121.347656 C 182.890625 121.347656 166.230469 128.765625 154.261719 140.738281 C 142.21875 152.707031 134.800781 169.296875 134.800781 187.640625 L 95.738281 187.640625 Z M 95.738281 187.707031 " fill-opacity="1" fill-rule="nonzero"/><path fill="#000000" d="M 245.40625 147.667969 C 250.304688 152.988281 254.15625 159.289062 256.886719 166.21875 C 259.476562 173.007812 260.945312 180.21875 260.945312 187.640625 C 260.945312 204.089844 254.296875 219 243.445312 229.78125 C 232.664062 240.5625 217.683594 247.210938 201.234375 247.210938 L 201.234375 208.289062 C 206.972656 208.289062 212.152344 205.980469 215.863281 202.269531 C 219.644531 198.558594 221.953125 193.378906 221.953125 187.640625 C 221.953125 184.910156 221.464844 182.390625 220.625 180.21875 C 219.714844 177.839844 218.3125 175.667969 216.632812 173.777344 Z M 245.40625 147.667969 " fill-opacity="1" fill-rule="nonzero"/></svg>